<?xml version="1.0" standalone="no"?><svg xmlns="http://www.w3.org/2000/svg" viewBox="0 0 1440 320"><path fill="#000b76" fill-opacity="0.1" d="M0,192L26.7,181.3C53.3,171,107,149,160,133.3C213.3,117,267,107,320,96C373.3,85,427,75,480,80C533.3,85,587,107,640,106.7C693.3,107,747,85,800,69.3C853.3,53,907,43,960,80C1013.3,117,1067,203,1120,208C1173.3,213,1227,139,1280,117.3C1333.3,96,1387,128,1413,144L1440,160L1440,320L1413.3,320C1386.7,320,1333,320,1280,320C1226.7,320,1173,320,1120,320C1066.7,320,1013,320,960,320C906.7,320,853,320,800,320C746.7,320,693,320,640,320C586.7,320,533,320,480,320C426.7,320,373,320,320,320C266.7,320,213,320,160,320C106.7,320,53,320,27,320L0,320Z"></path></svg>